<?xml version="1.0" standalone="no"?>
<!DOCTYPE svg PUBLIC "-//W3C//DTD SVG 20010904//EN"
 "http://www.w3.org/TR/2001/REC-SVG-20010904/DTD/svg10.dtd">
<svg version="1.0" xmlns="http://www.w3.org/2000/svg"
 width="277.000000pt" height="272.000000pt" viewBox="0 0 277.000000 272.000000"
 preserveAspectRatio="xMidYMid meet">

<g transform="translate(0.000000,272.000000) scale(0.100000,-0.100000)"
fill="#000000" stroke="none">
<path d="M1175 2681 c-373 -60 -710 -277 -910 -586 -150 -229 -219 -466 -218
-740 1 -396 169 -754 478 -1017 l80 -68 6 617 c6 697 2 663 87 828 63 123 199
261 318 322 128 67 216 88 364 88 108 -1 137 -4 213 -28 224 -71 380 -205 481
-416 53 -111 69 -198 64 -349 -4 -109 -9 -139 -35 -215 -41 -117 -83 -185
-172 -279 -82 -87 -167 -145 -274 -188 -105 -41 -178 -53 -313 -48 -99 3 -134
9 -206 34 l-88 30 0 -297 0 -297 48 -11 c111 -25 165 -30 307 -26 83 1 164 6
180 9 125 28 206 50 263 72 85 34 206 95 255 128 l37 25 0 -119 0 -120 285 0
285 0 0 719 c0 667 -1 727 -19 833 -49 282 -173 522 -375 723 -185 184 -380
292 -641 356 -72 18 -125 23 -270 25 -99 1 -202 -1 -230 -5z"/>
<path d="M1290 1681 c-95 -31 -169 -94 -209 -180 -22 -47 -26 -70 -26 -141 1
-72 5 -94 28 -142 33 -68 90 -121 166 -156 75 -35 183 -36 255 -3 140 65 226
223 196 360 -36 164 -149 261 -309 267 -42 2 -87 0 -101 -5z"/>
</g>
</svg>
